<?xml version="1.0" encoding="UTF-8" standalone="no"?>
<!-- Created with Inkscape (http://www.inkscape.org/) -->

<svg
   width="103.76799mm"
   height="28.594212mm"
   viewBox="0 0 103.76799 28.594212"
   version="1.1"
   id="svg851"
   inkscape:version="1.1 (c68e22c387, 2021-05-23)"
   sodipodi:docname="logo dark.svg"
   xmlns:inkscape="http://www.inkscape.org/namespaces/inkscape"
   xmlns:sodipodi="http://sodipodi.sourceforge.net/DTD/sodipodi-0.dtd"
   xmlns="http://www.w3.org/2000/svg"
   xmlns:svg="http://www.w3.org/2000/svg">
  <sodipodi:namedview
     id="namedview853"
     pagecolor="#000000"
     bordercolor="#666666"
     borderopacity="1.0"
     inkscape:pageshadow="2"
     inkscape:pageopacity="0"
     inkscape:pagecheckerboard="0"
     inkscape:document-units="mm"
     showgrid="false"
     inkscape:zoom="0.74118967"
     inkscape:cx="3.3729558"
     inkscape:cy="217.89294"
     inkscape:window-width="1920"
     inkscape:window-height="1017"
     inkscape:window-x="-8"
     inkscape:window-y="-8"
     inkscape:window-maximized="1"
     inkscape:current-layer="g4157-3-8"
     fit-margin-top="0"
     fit-margin-left="0"
     fit-margin-right="0"
     fit-margin-bottom="0" />
  <defs
     id="defs848" />
  <g
     inkscape:label="Layer 1"
     inkscape:groupmode="layer"
     id="layer1"
     transform="translate(-43.962758,-62.80866)">
    <g
       id="g4157-3-8"
       transform="matrix(0.79452203,0,0,-0.79452203,43.962758,91.402872)">
      <path
         inkscape:connector-curvature="0"
         id="path4159-3-5"
         style="fill:#25a9e1;fill-opacity:1;fill-rule:evenodd;stroke:none"
         d="m 14.3379,32.0973 8.9447,-5.1642 c 0,-7.6184 0,-10.2586 0,-17.877 L 12.9895,3.1136 6.7411,6.7212 4.0448,5.1644 6.4947,3.7497 12.9895,0 l 6.4947,3.7497 6.495,3.7499 c 0,8.6562 0,12.3338 0,20.99 l -6.495,3.75 -5.1463,2.9712 -1.3484,0.7784 -1.3482,-0.7784 v -3.1135 c 0,-7.0994 0,-9.2206 0,-16.3199 L 2.6963,10.6129 V 20.9418 L 8.945,24.5494 V 27.663 L 6.4947,26.2485 0,22.4986 V 14.999 9.0561 7.4996 l 1.3482,-0.7784 2.6966,1.5565 10.2931,5.9429 v 3.1135 c 0,6.5807 0,8.1828 0,14.7632"
         inkscape:export-filename="C:\Users\Florian Reinholz\My Data\aa_dision_vn\CV\path4159-3-5.png"
         inkscape:export-xdpi="206.2"
         inkscape:export-ydpi="206.2" />
      <path
         inkscape:connector-curvature="0"
         id="path4161-4-7"
         style="fill:#ffffff;fill-opacity:1;fill-rule:nonzero;stroke:none"
         d="m 37.349,25.4115 c -0.4238,0 -0.6358,-0.2121 -0.6358,-0.6358 V 11.2133 c 0,-0.4238 0.212,-0.6355 0.6358,-0.6355 h 9.7903 c 4.5561,0 6.4208,1.8433 6.4208,5.9757 v 2.882 c 0,4.1323 -1.8647,5.976 -6.4208,5.976 z m 1.9922,-2.6703 c 0,0.1695 0.0845,0.2543 0.2543,0.2543 h 7.4803 c 2.8398,0 3.8356,-0.9958 3.8356,-3.7721 v -2.4579 c 0,-2.7762 -0.9958,-3.7721 -3.8356,-3.7721 h -7.4803 c -0.1698,0 -0.2543,0.0848 -0.2543,0.2543 z m 18.6593,2.6703 c -0.2542,0 -0.3815,-0.1273 -0.3815,-0.3816 V 10.959 c 0,-0.2542 0.1273,-0.3812 0.3815,-0.3812 h 1.8649 c 0.2543,0 0.3813,0.127 0.3813,0.3812 v 14.0709 c 0,0.2543 -0.127,0.3816 -0.3813,0.3816 z m 9.7804,0 c -2.4582,0 -3.5388,-1.3564 -3.5388,-3.3696 v -1.5468 c 0,-2.2252 1.1866,-3.4753 3.5178,-3.4753 h 8.2644 c 0.9536,0 1.3774,-0.5086 1.3774,-1.4834 v -1.0596 c 0,-0.9113 -0.3815,-1.4834 -1.3986,-1.4834 H 64.6447 c -0.2543,0 -0.3813,-0.1272 -0.3813,-0.4028 V 10.959 c 0,-0.2542 0.127,-0.3812 0.3813,-0.3812 h 11.8459 c 2.4792,0 3.5601,1.3561 3.5601,3.348 v 1.7376 c 0,2.2252 -1.1869,3.4753 -3.5178,3.4753 h -8.2644 c -0.9749,0 -1.3986,0.5085 -1.3986,1.4833 v 0.8901 c 0,0.9114 0.3815,1.4834 1.3986,1.4834 h 10.8496 c 0.2542,0 0.3815,0.1273 0.3815,0.4028 v 1.6316 c 0,0.2543 -0.1273,0.3816 -0.3815,0.3816 z m 16.5195,0 c -0.2543,0 -0.3816,-0.1273 -0.3816,-0.3816 V 10.959 c 0,-0.2542 0.1273,-0.3812 0.3816,-0.3812 h 1.8649 c 0.2543,0 0.3813,0.127 0.3813,0.3812 v 14.0709 c 0,0.2543 -0.127,0.3816 -0.3813,0.3816 z m 12.196,0 c -4.2593,0 -5.8697,-1.5259 -5.8697,-5.5945 v -3.6451 c 0,-4.0685 1.6104,-5.5941 5.8697,-5.5941 h 6.4636 c 4.2593,0 5.87,1.5256 5.87,5.5941 v 3.6451 c 0,4.0686 -1.6107,5.5945 -5.87,5.5945 z m -3.2422,-5.7853 c 0,2.5643 0.8056,3.3693 3.3273,3.3693 h 6.2725 c 2.5429,0 3.3267,-0.805 3.3267,-3.3693 v -3.2635 c 0,-2.5642 -0.7838,-3.3693 -3.3267,-3.3693 h -6.2725 c -2.5217,0 -3.3273,0.8051 -3.3273,3.3693 z m 21.2663,5.7853 c -1.0808,0 -1.6106,-0.4238 -1.6106,-1.8649 V 10.959 c 0,-0.2542 0.127,-0.3812 0.3812,-0.3812 h 1.8015 c 0.2752,0 0.4025,0.127 0.4025,0.3812 v 11.7187 c 0,0.1486 0.0425,0.2121 0.1695,0.2121 h 0.2117 c 0.1273,0 0.2121,-0.0426 0.2971,-0.1486 l 9.2393,-11.1251 c 0.6993,-0.8478 0.9958,-1.0383 2.0554,-1.0383 h 1.5046 c 1.1018,0 1.6316,0.4235 1.6316,1.8646 v 12.5875 c 0,0.2543 -0.1273,0.3816 -0.3815,0.3816 h -1.8012 c -0.2755,0 -0.3815,-0.1273 -0.3815,-0.3816 V 13.3112 c 0,-0.1482 -0.0635,-0.212 -0.1908,-0.212 h -0.2117 c -0.127,0 -0.2121,0.0425 -0.2968,0.1485 l -9.218,11.1252 c -0.678,0.8056 -0.9323,1.0386 -2.0557,1.0386 z"
         inkscape:export-filename="C:\Users\Florian Reinholz\My Data\aa_dision_vn\CV\path4159-3-5.png"
         inkscape:export-xdpi="206.2"
         inkscape:export-ydpi="206.2" />
    </g>
  </g>
</svg>
