<?xml version="1.0" encoding="UTF-8"?>
<svg width="1157px" height="626px" viewBox="0 0 1157 626" version="1.1" xmlns="http://www.w3.org/2000/svg" xmlns:xlink="http://www.w3.org/1999/xlink">
    <!-- Generator: Sketch 48.2 (47327) - http://www.bohemiancoding.com/sketch -->
    <title>Group 27</title>
    <desc>Created with Sketch.</desc>
    <defs></defs>
    <g id="V4---25.09.17" stroke="none" stroke-width="1" fill="none" fill-rule="evenodd">
        <g id="Group-27">
            <path d="M460.207612,128.462989 C460.207612,128.462989 453.293372,149.336549 471.735094,153.977633 C490.17119,158.613058 518.401989,148.759243 532.236093,137.162192 C546.064571,125.570801 553.558278,120.929716 553.558278,120.929716 C553.558278,120.929716 563.93245,114.551055 572,124.987835 C556.433117,115.711326 546.767809,138.44698 536.269868,148.759243 C512.64106,171.947686 478.643707,186.436925 460.207612,177.160416 C423.740486,158.816813 460.207612,128.462989 460.207612,128.462989" id="Fill-1" fill="#E63137"></path>
            <path d="M598.137437,69.8121663 C598.249631,70.3522121 598.339386,70.9035088 598.339386,71.4716819 C598.339386,76.1745805 594.547236,79.9886537 589.851925,79.9886537 C586.082213,79.9886537 582.912738,77.4796911 581.818849,74.0594012 C580.797885,72.9511823 574.593568,74.2000381 574.593568,74.2000381 C593.952609,65.6886918 586.379527,58.0999237 603.88176,67.5844775 L598.137437,69.8121663 Z M704.278386,165.945938 C710.00588,146.543669 710.645384,127.411423 708.811016,110.259344 L721.943301,102.805587 L694.747522,72.1186117 L700.183312,55.0734172 L666.188589,46.8883486 L658.312584,0 C628.429765,46.0895309 603.1525,36.875 566.375371,48.3959764 C529.609462,59.9225782 488.237996,87.5717963 488.237996,87.5717963 C488.237996,87.5717963 499.726642,147.505625 513.52087,138.285469 C527.309489,129.059687 543.39808,110.625 559.481062,108.318555 C575.575263,106.02336 589.363882,119.850782 582.469573,142.887109 C575.575263,165.945938 534.209408,163.633867 518.109597,177.461289 C502.021005,191.294336 525.009516,207.433829 525.009516,207.433829 C525.009516,207.433829 524.470985,189.443555 568.680954,177.461289 C615.185286,164.860221 613.148968,139.629958 613.148968,139.629958 C613.148968,139.629958 618.259396,144.794146 609.065114,165.546529 C599.870832,186.287662 565.079533,193.825801 527.46656,211.236651 C497.58935,225.064073 466.26484,246.694031 463,295 L516.611809,295 C532.36382,259.323227 575.575263,244.308829 575.575263,244.308829 C561.208847,257.500572 545.57464,278.196701 540.486651,295 L585.986848,295 C591.046789,267.423913 619.241092,235.083047 619.241092,235.083047 C608.706094,254.884725 607.225136,278.466724 607.881469,295 L649.118302,295 L651.412665,248.916095 C653.993123,259.019451 659.4794,287.264969 663.703497,295 L733,295 C689.306123,252.825801 685.889822,228.169336 704.278386,165.945938 Z" id="Fill-3" fill="#004981"></path>
            <path d="M117.467669,388.092754 C110.37594,364.44058 95.4045113,347.095652 70.1894737,347.095652 C37.8827068,347.095652 25.275188,374.295652 25.275188,405.831884 C25.275188,437.368116 42.2165414,464.962319 74.9172932,464.962319 C98.9503759,464.962319 116.482707,451.565052 130.075188,430.469565 L135,434.417226 C117.270677,461.02029 100.132331,476 69.0075188,476 C33.7458647,476 4,448.017226 4,408 C4,367.988406 33.7458647,340 69.0075188,340 C88.5097744,340 102.496241,345.518841 116.679699,345.913043 C116.679699,356.753623 118.846617,376.857971 120.225564,388.092754 L117.467669,388.092754 Z" id="Fill-5" fill="#004A92"></path>
            <path d="M253.769737,374.761258 C253.769737,352.802857 252.397368,346.921143 233.380263,345.352686 L233.380263,343 C243.967105,343.392114 254.75,343.784229 265.336842,343.784229 C273.963158,343.784229 282.589474,343.392114 291.019737,343 L291.019737,345.352686 C272.786842,346.921143 271.414474,352.802857 271.414474,374.761258 L271.414474,440.238742 C271.414474,462.197143 272.786842,468.084459 292,469.647314 L292,472 C282.001316,471.613487 272.198684,471.221373 262.2,471.221373 C252.593421,471.221373 243.182895,471.613487 233.772368,472 L233.772368,469.647314 C252.397368,468.084459 253.769737,462.197143 253.769737,440.238742 L253.769737,404.954058 L181.034211,404.954058 L181.034211,440.238742 C181.034211,462.197143 182.406579,468.084459 201.619737,469.647314 L201.619737,472 C191.621053,471.613487 181.818421,471.221373 171.819737,471.221373 C162.213158,471.221373 152.802632,471.613487 143.392105,472 L143.392105,469.647314 C162.017105,468.084459 163.389474,462.197143 163.389474,440.238742 L163.389474,374.761258 C163.389474,352.802857 162.017105,346.921143 143,345.352686 L143,343 C153.586842,343.392114 164.369737,343.784229 174.956579,343.784229 C183.582895,343.784229 192.209211,343.392114 200.639474,343 L200.639474,345.352686 C182.406579,346.921143 181.034211,352.802857 181.034211,374.761258 L181.034211,398.680229 L253.769737,398.680229 L253.769737,374.761258 Z" id="Fill-7" fill="#004A92"></path>
            <path d="M348.010687,463.569909 C352.343511,464.550152 362.584733,466.118541 369.871756,466.118541 C401.580153,466.118541 417.926718,455.924012 436.833588,430.829787 L439,432.599826 L421.077863,472 C416.548092,471.613504 411.821374,471.215805 407.291603,471.215805 L333.239695,471.215805 C325.558779,471.215805 318.074809,471.613504 310.393893,472 L310.393893,469.647416 C329.103817,468.084629 330.285496,462.197568 330.285496,440.240122 L330.285496,374.76548 C330.285496,352.802432 329.103817,346.920973 310,345.358185 L310,343.005601 C327.725191,343.392097 340.920611,343.784195 364.948092,343.784195 C383.264122,343.784195 401.777099,343.392097 420.487023,343 C420.09313,349.083109 420.09313,354.174772 420.09313,359.272036 C420.09313,364.963048 420.880916,370.642857 421.274809,377.700608 L418.714504,378.490404 C412.018321,353.194529 395.474809,348.097264 375.583206,348.097264 C366.326718,348.097264 357.267176,348.489362 348.010687,349.273556 L348.010687,398.285714 C353.131298,398.285714 358.054962,397.893617 363.175573,397.893617 C381.09771,397.893617 392.126718,391.816109 394.490076,372.799392 L396.853435,372.799392 C396.853435,382.209726 396.459542,391.620061 396.459542,400.834347 C396.459542,410.244681 396.853435,419.655015 396.853435,429.06535 L394.490076,429.06535 C389.960305,406.917455 381.68855,402.990881 360.615267,402.990881 L348.010687,402.990881 L348.010687,463.569909 Z" id="Fill-9" fill="#004A92"></path>
            <path d="M523.721975,468.574629 C556.348591,468.574629 575.610087,439.871424 575.610087,407.826066 C575.610087,375.77509 556.348591,347.077503 523.721975,347.077503 C491.095359,347.077503 471.833863,375.77509 471.833863,407.826066 C471.833863,439.871424 491.095359,468.574629 523.721975,468.574629 Z M610,482.729634 C595.455605,501.793954 587.206294,513 561.458784,513 C532.369994,513 511.929222,484.68999 482.643886,484.68999 C476.354418,484.68999 470.261496,487.054775 464.758211,489.998117 L462.006569,486.858177 C471.04768,481.151239 479.302606,478.792071 489.916084,478.792071 C518.808328,478.792071 548.683302,499.243807 571.286078,499.243807 C588.183408,499.243807 596.44395,492.160687 606.664336,479.584077 L610,482.729634 Z M523.721975,340 C563.620788,340 596.44395,365.557648 596.44395,407.826066 C596.44395,450.094484 563.620788,475.652132 523.721975,475.652132 C483.823162,475.652132 451,450.094484 451,407.826066 C451,365.557648 483.823162,340 523.721975,340 Z" id="Fill-11" fill="#004A92"></path>
            <path d="M633.892006,362.780415 C633.892006,348.287834 627.995792,347.504451 617,345.350148 L617,343 C627.805049,343.391691 638.604488,343.783383 649.403927,343.783383 C657.258065,343.783383 664.910238,343.391691 672.769986,343 L672.769986,345.350148 C655.88359,346.721068 651.558205,352.008902 651.558205,367.676558 L651.558205,431.522255 C651.558205,455.807122 669.039271,465.207715 690.049088,465.207715 C723.429173,465.207715 731.676017,442.68546 731.676017,429.95549 L731.676017,375.118694 C731.676017,354.163205 728.528752,347.308605 712.820477,345.350148 L712.820477,343 C720.876578,343.391691 728.921459,343.783383 736.97756,343.783383 C743.647966,343.783383 750.329593,343.391691 757,343 L757,345.350148 C745.807854,346.916914 738.73913,348.875371 738.73913,370.810089 L738.73913,429.367953 C738.73913,460.507418 714.789621,475 685.336606,475 C658.823282,475 633.892006,460.703264 633.892006,432.305638 L633.892006,362.780415 Z" id="Fill-13" fill="#004A92"></path>
            <path d="M814.010687,463.569909 C818.343511,464.550152 828.584733,466.118541 835.871756,466.118541 C867.580153,466.118541 883.926718,455.924012 902.827961,430.829787 L905,432.599826 L887.072236,472 C882.548092,471.613504 877.821374,471.215805 873.291603,471.215805 L799.239695,471.215805 C791.558779,471.215805 784.074809,471.613504 776.388266,472 L776.388266,469.647416 C795.103817,468.084629 796.285496,462.197568 796.285496,440.240122 L796.285496,374.76548 C796.285496,352.802432 795.103817,346.920973 776,345.358185 L776,343.005601 C793.725191,343.392097 806.914984,343.784195 830.948092,343.784195 C849.264122,343.784195 867.777099,343.392097 886.487023,343 C886.09313,349.083109 886.09313,354.174772 886.09313,359.272036 C886.09313,364.963048 886.875289,370.642857 887.274809,377.700608 L884.708877,378.490404 C878.018321,353.194529 861.474809,348.097264 841.577579,348.097264 C832.326718,348.097264 823.267176,348.489362 814.010687,349.273556 L814.010687,398.285714 C819.131298,398.285714 824.054962,397.893617 829.169945,397.893617 C847.09771,397.893617 858.126718,391.816109 860.490076,372.799392 L862.853435,372.799392 C862.853435,382.209726 862.453915,391.620061 862.453915,400.834347 C862.453915,410.244681 862.853435,419.655015 862.853435,429.06535 L860.490076,429.06535 C855.960305,406.917455 847.682923,402.990881 826.60964,402.990881 L814.010687,402.990881 L814.010687,463.569909 Z" id="Fill-15" fill="#004A92"></path>
            <path d="M951.630901,403.554217 C957.314735,405.527108 963.782546,406.908133 969.858369,406.908133 C990.04578,406.908133 1002.00143,398.03012 1002.00143,376.722892 C1002.00143,359.558735 987.693848,347.918675 971.230329,347.918675 C964.762518,347.918675 958.294707,348.313253 952.414878,350.088855 C952.02289,362.715361 951.630901,375.341867 951.630901,390.138554 L951.630901,403.554217 Z M1051,472.210843 L1015.72103,472.210843 C999.649499,454.454819 984.753934,435.317771 974.170243,414.010542 C969.074392,414.010542 956.726753,412.037651 951.630901,410.262048 L951.630901,441.039157 C951.630901,463.135542 953.002861,469.059854 972.2103,470.63253 L972.2103,473 C962.214592,472.605422 952.414878,472.210843 942.41357,472.210843 C932.815451,472.210843 923.407725,472.605422 914,473 L914,470.63253 C932.619456,469.059854 933.991416,463.135542 933.991416,441.039157 L933.991416,375.144578 C933.991416,353.048193 932.619456,347.129518 914,345.551205 L914,343.183735 C922.427754,343.578313 930.659514,343.972892 939.087268,343.972892 C946.339056,343.972892 962.410587,342 972.406295,342 C995.141631,342 1021.60086,353.442771 1021.60086,380.471386 C1021.60086,398.621988 1007.88126,408.881024 991.221745,412.240577 C1002.19742,430.97741 1025.91273,467.081325 1051,469.843373 L1051,472.210843 Z" id="Fill-17" fill="#004A92"></path>
            <path d="M1147.96761,380.602899 C1141.09514,363.652174 1126.17206,346.307246 1106.14933,346.307246 C1091.22626,346.307246 1080.61741,351.037681 1080.61741,365.228986 C1080.61741,399.130435 1157,391.049275 1157,438.944928 C1157,464.568116 1136.97166,476 1113.0218,476 C1100.05668,476 1083.3664,470.278427 1077.27935,470.278427 C1074.33401,470.278427 1071.78699,471.461035 1069.038,472.452174 C1066.68172,457.472464 1063.33806,443.084058 1060,428.492919 L1062.55263,427.118841 C1072.17409,445.252174 1089.06073,469.692754 1112.62348,469.692754 C1127.94488,469.692754 1141.68982,463.385507 1141.68982,446.237681 C1141.68982,408.591304 1065.30723,414.892919 1065.30723,373.901449 C1065.30723,353.205797 1082.39023,340 1101.82389,340 C1111.44534,340 1118.90688,341.576812 1126.17206,343.153623 C1133.6336,344.730435 1140.70243,346.504348 1149.14575,346.504348 C1149.14575,357.936232 1149.34211,369.368116 1150.7166,380.602899 L1147.96761,380.602899 Z" id="Fill-19" fill="#004A92"></path>
            <path d="M346.595957,586.615725 C344.423457,574.924225 334.232457,564.103725 320.999957,564.103725 C303.535314,564.103725 297.8981,579.335058 297.8981,591.601642 C297.8981,607.413642 307.660243,619.099558 326.637171,619.099558 C340.304171,619.099558 348.548386,611.243808 353.756743,604.342808 L356.352457,606.738058 C348.113886,619.004642 335.964814,626.000558 319.696457,626.000558 C298.112529,626.000558 282.278671,613.063975 282.278671,592.941642 C282.278671,573.109642 298.547029,559.882725 321.7561,559.882725 C325.773814,559.882725 331.738314,560.748142 336.833814,561.607975 C342.036529,562.473392 346.375886,563.333225 347.137671,563.333225 C347.7866,563.333225 348.006671,563.333225 348.328314,563.238308 C348.328314,565.728475 348.113886,568.123725 348.113886,570.619475 C348.113886,575.985058 348.548386,581.350642 349.304529,586.615725 L346.595957,586.615725 Z" id="Fill-21" fill="#004A92"></path>
            <path d="M419.645669,593.947004 L410.781777,571.379355 L410.568054,571.379355 L401.158605,593.947004 L419.645669,593.947004 Z M375,622.684793 C383.104612,621.91493 384.949381,618.251059 387.862767,612.17645 L409.055118,568.103225 L407.109111,563.472811 C411.647919,562.697329 416.293588,561.640875 420.404949,560 L443.863892,616.801245 C445.590551,620.954007 450.568054,622.684793 455,622.684793 L455,625 C449.375703,624.713409 440.944882,624.617878 435.433071,624.617878 C429.375703,624.617878 423.32396,624.713409 417.379078,625 L417.379078,622.684793 C424.836895,622.201522 428.4027,620.661796 428.4027,617.284516 C428.4027,614.879398 425.91676,609.861243 424.836895,607.163915 L421.164229,597.610876 L399.645669,597.610876 L394.133858,611.209907 C393.487064,612.946313 392.407199,614.486038 392.407199,616.997925 C392.407199,620.178525 398.025872,622.111611 401.917885,622.684793 L401.917885,625 C397.266592,624.713409 392.620922,624.617878 387.975253,624.617878 C383.650169,624.617878 379.325084,624.713409 375,625 L375,622.684793 Z" id="Fill-24" fill="#004A92"></path>
            <path d="M503.82214,591.84581 C506.07433,592.71075 509.285373,593.480211 511.966817,593.480211 C521.717016,593.480211 526.645076,587.408776 526.645076,579.023344 C526.645076,570.834489 522.893284,564.470996 512.931245,564.470996 C509.608707,564.470996 506.715423,565.049495 503.82214,566.009917 L503.82214,591.84581 Z M489.461641,574.878368 C489.461641,566.206494 487.644279,564.470996 478,563.695919 L478,561.381922 C482.069551,561.67398 487.644279,561.966038 494.289355,561.966038 C500.928856,561.966038 507.785771,561 514.854526,561 C528.356517,561 541,566.975954 541,580.084862 C541,591.553752 529.43244,596.951207 517.859304,596.951207 C513.143085,596.951207 508.215025,596.378324 503.82214,594.82817 L503.82214,611.700132 C503.82214,620.372005 504.680648,622.304081 515.713034,623.073541 L515.713034,625 C509.608707,624.809039 503.498805,624.618078 497.394478,624.618078 C490.855323,624.618078 484.427661,624.809039 478,625 L478,623.073541 C488.608707,622.304081 489.461641,620.372005 489.461641,611.700132 L489.461641,574.878368 Z" id="Fill-26" fill="#004A92"></path>
            <path d="M569.435217,561.00565 C576.059565,561.293811 582.582174,561.587622 589.206522,561.587622 C595.508696,561.587622 601.703478,561.293811 608,561 L608,563.327889 C598.006957,563.6217 595.616087,566.333804 595.616087,573.995497 L595.616087,615.106471 C595.616087,620.152114 598.877391,622.287896 607.677826,622.672111 L607.463043,625 C601.155217,624.706189 594.858696,624.615785 588.556522,624.615785 C582.033913,624.615785 575.516957,624.706189 569,625 L569,622.672111 C577.800435,622.287896 581.061739,620.152114 581.061739,615.106471 L581.061739,573.995497 C581.061739,566.333804 578.450435,563.6217 569.435217,563.327889 L569.435217,561.00565 Z" id="Fill-28" fill="#004A92"></path>
            <path d="M696.642061,581.267326 C693.43125,566.915776 686.140034,565.271564 673.391554,565.271564 L673.391554,611.620288 C673.391554,620.344222 674.25,622.287896 685.175676,623.056326 L685.175676,625 C679.177703,624.807893 673.068243,624.615785 666.964358,624.615785 C660.43125,624.615785 654.004054,624.807893 647.253547,625 L647.253547,623.056326 C658.179223,622.287896 659.037669,620.344222 659.037669,611.620288 L659.037669,565.271564 C646.289189,565.271564 638.997973,566.915776 635.787162,581.267326 L633,581.267326 C633.540709,576.42509 634.07027,571.673259 634.07027,561.00565 C644.784122,561.293811 655.180236,561.587622 665.676689,561.587622 C676.390541,561.587622 687.109966,561.293811 697.924155,561 C697.924155,571.673259 698.464865,576.42509 699,581.267326 L696.642061,581.267326 Z" id="Fill-30" fill="#004A92"></path>
            <path d="M757.648808,593.947004 L748.784293,571.379355 L748.56493,571.379355 L739.160444,593.947004 L757.648808,593.947004 Z M713,622.684793 C721.105182,621.91493 722.944456,618.251059 725.863672,612.17645 L747.051888,568.103225 L745.111369,563.472811 C749.644871,562.697329 754.296492,561.640875 758.402517,560 L781.863109,616.801245 C783.58989,620.954007 788.567742,622.684793 793,622.684793 L793,625 C787.375308,624.713409 778.943894,624.617878 773.431695,624.617878 C767.373901,624.617878 761.321732,624.713409 755.376433,625 L755.376433,622.684793 C762.834775,622.201522 766.406454,620.661796 766.406454,617.284516 C766.406454,614.879398 763.914716,609.861243 762.834775,607.163915 L759.161851,597.610876 L737.641777,597.610876 L732.135204,611.209907 C731.488364,612.946313 730.402798,614.486038 730.402798,616.997925 C730.402798,620.178525 736.021866,622.111611 739.919778,622.684793 L739.919778,625 C735.268157,624.713409 730.616537,624.617878 725.970541,624.617878 C721.650777,624.617878 717.319764,624.713409 713,625 L713,622.684793 Z" id="Fill-32" fill="#004A92"></path>
            <path d="M826.507623,572.735499 C826.507623,565.554074 822.058159,564.198022 815.220215,563.327889 L815.220215,561.00565 C821.730661,561.389865 828.348391,561.581972 834.858837,561.581972 C841.589497,561.581972 848.212874,561.389865 854.937888,561 L854.937888,563.327889 C848.320158,564.198022 841.047431,565.554074 841.047431,572.735499 L841.047431,620.638033 C843.108413,621.118301 847.01581,621.316059 851.137775,621.316059 C867.202146,621.316059 875.01694,615.59239 882.289667,603.082811 L885,604.156352 C881.312818,610.840558 878.387916,617.818575 876.428571,625 C866.445511,624.807893 856.34952,624.615785 846.36646,624.615785 C835.948617,624.615785 825.42349,624.807893 815,625 L815,622.672111 C820.861095,622.672111 826.507623,621.994085 826.507623,615.784497 L826.507623,572.735499 Z" id="Fill-34" fill="#004A92"></path>
            <path d="M117.467669,388.092754 C110.37594,364.44058 95.4045113,347.095652 70.1894737,347.095652 C37.8827068,347.095652 25.275188,374.295652 25.275188,405.831884 C25.275188,437.368116 42.2165414,464.962319 74.9172932,464.962319 C98.9503759,464.962319 116.482707,451.565052 130.075188,430.469565 L135,434.417226 C117.270677,461.02029 100.132331,476 69.0075188,476 C33.7458647,476 4,448.017226 4,408 C4,367.988406 33.7458647,340 69.0075188,340 C88.5097744,340 102.496241,345.518841 116.679699,345.913043 C116.679699,356.753623 118.846617,376.857971 120.225564,388.092754 L117.467669,388.092754 Z" id="Fill-36" fill="#004981"></path>
            <path d="M253.769737,374.761258 C253.769737,352.802857 252.397368,346.921143 233.380263,345.352686 L233.380263,343 C243.967105,343.392114 254.75,343.784229 265.336842,343.784229 C273.963158,343.784229 282.589474,343.392114 291.019737,343 L291.019737,345.352686 C272.786842,346.921143 271.414474,352.802857 271.414474,374.761258 L271.414474,440.238742 C271.414474,462.197143 272.786842,468.084459 292,469.647314 L292,472 C282.001316,471.613487 272.198684,471.221373 262.2,471.221373 C252.593421,471.221373 243.182895,471.613487 233.772368,472 L233.772368,469.647314 C252.397368,468.084459 253.769737,462.197143 253.769737,440.238742 L253.769737,404.954058 L181.034211,404.954058 L181.034211,440.238742 C181.034211,462.197143 182.406579,468.084459 201.619737,469.647314 L201.619737,472 C191.621053,471.613487 181.818421,471.221373 171.819737,471.221373 C162.213158,471.221373 152.802632,471.613487 143.392105,472 L143.392105,469.647314 C162.017105,468.084459 163.389474,462.197143 163.389474,440.238742 L163.389474,374.761258 C163.389474,352.802857 162.017105,346.921143 143,345.352686 L143,343 C153.586842,343.392114 164.369737,343.784229 174.956579,343.784229 C183.582895,343.784229 192.209211,343.392114 200.639474,343 L200.639474,345.352686 C182.406579,346.921143 181.034211,352.802857 181.034211,374.761258 L181.034211,398.680229 L253.769737,398.680229 L253.769737,374.761258 Z" id="Fill-38" fill="#004981"></path>
            <path d="M348.010687,463.569909 C352.343511,464.550152 362.584733,466.118541 369.871756,466.118541 C401.580153,466.118541 417.926718,455.924012 436.833588,430.829787 L439,432.599826 L421.077863,472 C416.548092,471.613504 411.821374,471.215805 407.291603,471.215805 L333.239695,471.215805 C325.558779,471.215805 318.074809,471.613504 310.393893,472 L310.393893,469.647416 C329.103817,468.084629 330.285496,462.197568 330.285496,440.240122 L330.285496,374.76548 C330.285496,352.802432 329.103817,346.920973 310,345.358185 L310,343.005601 C327.725191,343.392097 340.920611,343.784195 364.948092,343.784195 C383.264122,343.784195 401.777099,343.392097 420.487023,343 C420.09313,349.083109 420.09313,354.174772 420.09313,359.272036 C420.09313,364.963048 420.880916,370.642857 421.274809,377.700608 L418.714504,378.490404 C412.018321,353.194529 395.474809,348.097264 375.583206,348.097264 C366.326718,348.097264 357.267176,348.489362 348.010687,349.273556 L348.010687,398.285714 C353.131298,398.285714 358.054962,397.893617 363.175573,397.893617 C381.09771,397.893617 392.126718,391.816109 394.490076,372.799392 L396.853435,372.799392 C396.853435,382.209726 396.459542,391.620061 396.459542,400.834347 C396.459542,410.244681 396.853435,419.655015 396.853435,429.06535 L394.490076,429.06535 C389.960305,406.917455 381.68855,402.990881 360.615267,402.990881 L348.010687,402.990881 L348.010687,463.569909 Z" id="Fill-40" fill="#004981"></path>
            <path d="M523.721975,468.574629 C556.348591,468.574629 575.610087,439.871424 575.610087,407.826066 C575.610087,375.77509 556.348591,347.077503 523.721975,347.077503 C491.095359,347.077503 471.833863,375.77509 471.833863,407.826066 C471.833863,439.871424 491.095359,468.574629 523.721975,468.574629 Z M610,482.729634 C595.455605,501.793954 587.206294,513 561.458784,513 C532.369994,513 511.929222,484.68999 482.643886,484.68999 C476.354418,484.68999 470.261496,487.054775 464.758211,489.998117 L462.006569,486.858177 C471.04768,481.151239 479.302606,478.792071 489.916084,478.792071 C518.808328,478.792071 548.683302,499.243807 571.286078,499.243807 C588.183408,499.243807 596.44395,492.160687 606.664336,479.584077 L610,482.729634 Z M523.721975,340 C563.620788,340 596.44395,365.557648 596.44395,407.826066 C596.44395,450.094484 563.620788,475.652132 523.721975,475.652132 C483.823162,475.652132 451,450.094484 451,407.826066 C451,365.557648 483.823162,340 523.721975,340 Z" id="Fill-42" fill="#004981"></path>
            <path d="M633.892006,362.780415 C633.892006,348.287834 627.995792,347.504451 617,345.350148 L617,343 C627.805049,343.391691 638.604488,343.783383 649.403927,343.783383 C657.258065,343.783383 664.910238,343.391691 672.769986,343 L672.769986,345.350148 C655.88359,346.721068 651.558205,352.008902 651.558205,367.676558 L651.558205,431.522255 C651.558205,455.807122 669.039271,465.207715 690.049088,465.207715 C723.429173,465.207715 731.676017,442.68546 731.676017,429.95549 L731.676017,375.118694 C731.676017,354.163205 728.528752,347.308605 712.820477,345.350148 L712.820477,343 C720.876578,343.391691 728.921459,343.783383 736.97756,343.783383 C743.647966,343.783383 750.329593,343.391691 757,343 L757,345.350148 C745.807854,346.916914 738.73913,348.875371 738.73913,370.810089 L738.73913,429.367953 C738.73913,460.507418 714.789621,475 685.336606,475 C658.823282,475 633.892006,460.703264 633.892006,432.305638 L633.892006,362.780415 Z" id="Fill-44" fill="#004981"></path>
            <path d="M814.010687,463.569909 C818.343511,464.550152 828.584733,466.118541 835.871756,466.118541 C867.580153,466.118541 883.926718,455.924012 902.827961,430.829787 L905,432.599826 L887.072236,472 C882.548092,471.613504 877.821374,471.215805 873.291603,471.215805 L799.239695,471.215805 C791.558779,471.215805 784.074809,471.613504 776.388266,472 L776.388266,469.647416 C795.103817,468.084629 796.285496,462.197568 796.285496,440.240122 L796.285496,374.76548 C796.285496,352.802432 795.103817,346.920973 776,345.358185 L776,343.005601 C793.725191,343.392097 806.914984,343.784195 830.948092,343.784195 C849.264122,343.784195 867.777099,343.392097 886.487023,343 C886.09313,349.083109 886.09313,354.174772 886.09313,359.272036 C886.09313,364.963048 886.875289,370.642857 887.274809,377.700608 L884.708877,378.490404 C878.018321,353.194529 861.474809,348.097264 841.577579,348.097264 C832.326718,348.097264 823.267176,348.489362 814.010687,349.273556 L814.010687,398.285714 C819.131298,398.285714 824.054962,397.893617 829.169945,397.893617 C847.09771,397.893617 858.126718,391.816109 860.490076,372.799392 L862.853435,372.799392 C862.853435,382.209726 862.453915,391.620061 862.453915,400.834347 C862.453915,410.244681 862.853435,419.655015 862.853435,429.06535 L860.490076,429.06535 C855.960305,406.917455 847.682923,402.990881 826.60964,402.990881 L814.010687,402.990881 L814.010687,463.569909 Z" id="Fill-46" fill="#004981"></path>
            <path d="M951.630901,403.554217 C957.314735,405.527108 963.782546,406.908133 969.858369,406.908133 C990.04578,406.908133 1002.00143,398.03012 1002.00143,376.722892 C1002.00143,359.558735 987.693848,347.918675 971.230329,347.918675 C964.762518,347.918675 958.294707,348.313253 952.414878,350.088855 C952.02289,362.715361 951.630901,375.341867 951.630901,390.138554 L951.630901,403.554217 Z M1051,472.210843 L1015.72103,472.210843 C999.649499,454.454819 984.753934,435.317771 974.170243,414.010542 C969.074392,414.010542 956.726753,412.037651 951.630901,410.262048 L951.630901,441.039157 C951.630901,463.135542 953.002861,469.059854 972.2103,470.63253 L972.2103,473 C962.214592,472.605422 952.414878,472.210843 942.41357,472.210843 C932.815451,472.210843 923.407725,472.605422 914,473 L914,470.63253 C932.619456,469.059854 933.991416,463.135542 933.991416,441.039157 L933.991416,375.144578 C933.991416,353.048193 932.619456,347.129518 914,345.551205 L914,343.183735 C922.427754,343.578313 930.659514,343.972892 939.087268,343.972892 C946.339056,343.972892 962.410587,342 972.406295,342 C995.141631,342 1021.60086,353.442771 1021.60086,380.471386 C1021.60086,398.621988 1007.88126,408.881024 991.221745,412.240577 C1002.19742,430.97741 1025.91273,467.081325 1051,469.843373 L1051,472.210843 Z" id="Fill-48" fill="#004981"></path>
            <path d="M1147.96761,380.602899 C1141.09514,363.652174 1126.17206,346.307246 1106.14933,346.307246 C1091.22626,346.307246 1080.61741,351.037681 1080.61741,365.228986 C1080.61741,399.130435 1157,391.049275 1157,438.944928 C1157,464.568116 1136.97166,476 1113.0218,476 C1100.05668,476 1083.3664,470.278427 1077.27935,470.278427 C1074.33401,470.278427 1071.78699,471.461035 1069.038,472.452174 C1066.68172,457.472464 1063.33806,443.084058 1060,428.492919 L1062.55263,427.118841 C1072.17409,445.252174 1089.06073,469.692754 1112.62348,469.692754 C1127.94488,469.692754 1141.68982,463.385507 1141.68982,446.237681 C1141.68982,408.591304 1065.30723,414.892919 1065.30723,373.901449 C1065.30723,353.205797 1082.39023,340 1101.82389,340 C1111.44534,340 1118.90688,341.576812 1126.17206,343.153623 C1133.6336,344.730435 1140.70243,346.504348 1149.14575,346.504348 C1149.14575,357.936232 1149.34211,369.368116 1150.7166,380.602899 L1147.96761,380.602899 Z" id="Fill-50" fill="#004981"></path>
            <path d="M346.595957,586.615725 C344.423457,574.924225 334.232457,564.103725 320.999957,564.103725 C303.535314,564.103725 297.8981,579.335058 297.8981,591.601642 C297.8981,607.413642 307.660243,619.099558 326.637171,619.099558 C340.304171,619.099558 348.548386,611.243808 353.756743,604.342808 L356.352457,606.738058 C348.113886,619.004642 335.964814,626.000558 319.696457,626.000558 C298.112529,626.000558 282.278671,613.063975 282.278671,592.941642 C282.278671,573.109642 298.547029,559.882725 321.7561,559.882725 C325.773814,559.882725 331.738314,560.748142 336.833814,561.607975 C342.036529,562.473392 346.375886,563.333225 347.137671,563.333225 C347.7866,563.333225 348.006671,563.333225 348.328314,563.238308 C348.328314,565.728475 348.113886,568.123725 348.113886,570.619475 C348.113886,575.985058 348.548386,581.350642 349.304529,586.615725 L346.595957,586.615725 Z" id="Fill-52" fill="#004981"></path>
            <path d="M419.645669,593.947004 L410.781777,571.379355 L410.568054,571.379355 L401.158605,593.947004 L419.645669,593.947004 Z M375,622.684793 C383.104612,621.91493 384.949381,618.251059 387.862767,612.17645 L409.055118,568.103225 L407.109111,563.472811 C411.647919,562.697329 416.293588,561.640875 420.404949,560 L443.863892,616.801245 C445.590551,620.954007 450.568054,622.684793 455,622.684793 L455,625 C449.375703,624.713409 440.944882,624.617878 435.433071,624.617878 C429.375703,624.617878 423.32396,624.713409 417.379078,625 L417.379078,622.684793 C424.836895,622.201522 428.4027,620.661796 428.4027,617.284516 C428.4027,614.879398 425.91676,609.861243 424.836895,607.163915 L421.164229,597.610876 L399.645669,597.610876 L394.133858,611.209907 C393.487064,612.946313 392.407199,614.486038 392.407199,616.997925 C392.407199,620.178525 398.025872,622.111611 401.917885,622.684793 L401.917885,625 C397.266592,624.713409 392.620922,624.617878 387.975253,624.617878 C383.650169,624.617878 379.325084,624.713409 375,625 L375,622.684793 Z" id="Fill-55" fill="#004981"></path>
            <path d="M503.82214,591.84581 C506.07433,592.71075 509.285373,593.480211 511.966817,593.480211 C521.717016,593.480211 526.645076,587.408776 526.645076,579.023344 C526.645076,570.834489 522.893284,564.470996 512.931245,564.470996 C509.608707,564.470996 506.715423,565.049495 503.82214,566.009917 L503.82214,591.84581 Z M489.461641,574.878368 C489.461641,566.206494 487.644279,564.470996 478,563.695919 L478,561.381922 C482.069551,561.67398 487.644279,561.966038 494.289355,561.966038 C500.928856,561.966038 507.785771,561 514.854526,561 C528.356517,561 541,566.975954 541,580.084862 C541,591.553752 529.43244,596.951207 517.859304,596.951207 C513.143085,596.951207 508.215025,596.378324 503.82214,594.82817 L503.82214,611.700132 C503.82214,620.372005 504.680648,622.304081 515.713034,623.073541 L515.713034,625 C509.608707,624.809039 503.498805,624.618078 497.394478,624.618078 C490.855323,624.618078 484.427661,624.809039 478,625 L478,623.073541 C488.608707,622.304081 489.461641,620.372005 489.461641,611.700132 L489.461641,574.878368 Z" id="Fill-57" fill="#004981"></path>
            <path d="M569.435217,561.00565 C576.059565,561.293811 582.582174,561.587622 589.206522,561.587622 C595.508696,561.587622 601.703478,561.293811 608,561 L608,563.327889 C598.006957,563.6217 595.616087,566.333804 595.616087,573.995497 L595.616087,615.106471 C595.616087,620.152114 598.877391,622.287896 607.677826,622.672111 L607.463043,625 C601.155217,624.706189 594.858696,624.615785 588.556522,624.615785 C582.033913,624.615785 575.516957,624.706189 569,625 L569,622.672111 C577.800435,622.287896 581.061739,620.152114 581.061739,615.106471 L581.061739,573.995497 C581.061739,566.333804 578.450435,563.6217 569.435217,563.327889 L569.435217,561.00565 Z" id="Fill-59" fill="#004981"></path>
            <path d="M696.642061,581.267326 C693.43125,566.915776 686.140034,565.271564 673.391554,565.271564 L673.391554,611.620288 C673.391554,620.344222 674.25,622.287896 685.175676,623.056326 L685.175676,625 C679.177703,624.807893 673.068243,624.615785 666.964358,624.615785 C660.43125,624.615785 654.004054,624.807893 647.253547,625 L647.253547,623.056326 C658.179223,622.287896 659.037669,620.344222 659.037669,611.620288 L659.037669,565.271564 C646.289189,565.271564 638.997973,566.915776 635.787162,581.267326 L633,581.267326 C633.540709,576.42509 634.07027,571.673259 634.07027,561.00565 C644.784122,561.293811 655.180236,561.587622 665.676689,561.587622 C676.390541,561.587622 687.109966,561.293811 697.924155,561 C697.924155,571.673259 698.464865,576.42509 699,581.267326 L696.642061,581.267326 Z" id="Fill-61" fill="#004981"></path>
            <path d="M757.648808,593.947004 L748.784293,571.379355 L748.56493,571.379355 L739.160444,593.947004 L757.648808,593.947004 Z M713,622.684793 C721.105182,621.91493 722.944456,618.251059 725.863672,612.17645 L747.051888,568.103225 L745.111369,563.472811 C749.644871,562.697329 754.296492,561.640875 758.402517,560 L781.863109,616.801245 C783.58989,620.954007 788.567742,622.684793 793,622.684793 L793,625 C787.375308,624.713409 778.943894,624.617878 773.431695,624.617878 C767.373901,624.617878 761.321732,624.713409 755.376433,625 L755.376433,622.684793 C762.834775,622.201522 766.406454,620.661796 766.406454,617.284516 C766.406454,614.879398 763.914716,609.861243 762.834775,607.163915 L759.161851,597.610876 L737.641777,597.610876 L732.135204,611.209907 C731.488364,612.946313 730.402798,614.486038 730.402798,616.997925 C730.402798,620.178525 736.021866,622.111611 739.919778,622.684793 L739.919778,625 C735.268157,624.713409 730.616537,624.617878 725.970541,624.617878 C721.650777,624.617878 717.319764,624.713409 713,625 L713,622.684793 Z" id="Fill-63" fill="#004981"></path>
            <path d="M826.507623,572.735499 C826.507623,565.554074 822.058159,564.198022 815.220215,563.327889 L815.220215,561.00565 C821.730661,561.389865 828.348391,561.581972 834.858837,561.581972 C841.589497,561.581972 848.212874,561.389865 854.937888,561 L854.937888,563.327889 C848.320158,564.198022 841.047431,565.554074 841.047431,572.735499 L841.047431,620.638033 C843.108413,621.118301 847.01581,621.316059 851.137775,621.316059 C867.202146,621.316059 875.01694,615.59239 882.289667,603.082811 L885,604.156352 C881.312818,610.840558 878.387916,617.818575 876.428571,625 C866.445511,624.807893 856.34952,624.615785 846.36646,624.615785 C835.948617,624.615785 825.42349,624.807893 815,625 L815,622.672111 C820.861095,622.672111 826.507623,621.994085 826.507623,615.784497 L826.507623,572.735499 Z" id="Fill-65" fill="#004981"></path>
            <path d="M0,520 L438,520" id="Stroke-67" stroke="#E63137" stroke-width="1.43"></path>
            <path d="M632,520 L1154,520" id="Stroke-69" stroke="#E63137" stroke-width="1.43"></path>
        </g>
    </g>
</svg>