<svg xmlns="http://www.w3.org/2000/svg" width="132" height="71" viewBox="0 0 132 71"><path fill="#fff" d="M51.84 14.06s-.79 2.34 1.3 2.86 5.29-.59 6.86-1.89c1.57-1.29 2.42-1.81 2.42-1.81s1.17-.72 2.09.45c-1.77-1.04-2.86 1.51-4.05 2.66-2.68 2.6-6.53 4.22-8.62 3.18-4.14-2.05 0-5.45 0-5.45"/><path fill="#fff" d="M68.36 7.87l.02.18a.96.96 0 0 1-1.87.3c-.12-.13-.82.01-.82.01 2.2-.96 1.34-1.81 3.32-.74zm12.58 4.56l1.5-.84-3.1-3.46.62-1.92-3.86-.93L75.2 0c-3.39 5.19-6.27 4.16-10.45 5.45-4.18 1.3-8.88 4.42-8.88 4.42s1.3 6.75 2.87 5.71 3.4-3.11 5.23-3.37c1.83-.26 3.39 1.3 2.61 3.89-.78 2.6-5.49 2.34-7.32 3.9-1.82 1.56.79 3.38.79 3.38s-.06-2.03 4.96-3.38c5.29-1.42 5.06-4.27 5.06-4.27s.58.59-.47 2.93c-1.04 2.33-5 3.18-9.27 5.14-3.4 1.56-6.96 4-7.33 9.44h6.09c1.79-4.02 6.71-5.71 6.71-5.71-1.64 1.49-3.41 3.82-3.99 5.71h5.17c.58-3.1 3.78-6.75 3.78-6.75-1.2 2.23-1.37 4.89-1.29 6.75h4.69l.26-5.19c.29 1.14.91 4.32 1.39 5.19h7.88c-4.96-4.75-5.35-7.53-3.26-14.54.65-2.19.72-4.34.51-6.27zM12.86 43.41c-.81-2.66-2.5-4.61-5.36-4.61-3.66 0-5.09 3.06-5.09 6.61 0 3.55 1.92 6.66 5.62 6.66 2.73 0 4.71-1.51 6.25-3.89l.56.45c-2.01 2.99-3.95 4.68-7.47 4.68-4 0-7.37-3.15-7.37-7.66C0 41.15 3.37 38 7.37 38c2.2 0 3.79.62 5.4.67 0 1.22.24 3.48.4 4.74zM28.61 42.59c0-2.48-.16-3.15-2.32-3.32V39c1.2.04 2.43.09 3.64.09.98 0 1.96-.05 2.92-.09v.27c-2.07.17-2.23.84-2.23 3.32V50c0 2.49.16 3.16 2.34 3.33v.27a69.3 69.3 0 0 0-6.63 0v-.27c2.12-.17 2.28-.84 2.28-3.33v-3.99h-8.28V50c0 2.49.16 3.16 2.34 3.33v.27a69.69 69.69 0 0 0-6.63 0v-.27c2.12-.17 2.28-.84 2.28-3.33v-7.41c0-2.48-.16-3.15-2.32-3.32V39c1.21.04 2.43.09 3.64.09.98 0 1.96-.05 2.92-.09v.27c-2.07.17-2.23.84-2.23 3.32v2.71h8.28zM39.31 52.65c.49.11 1.65.28 2.47.28 3.6 0 5.45-1.15 7.59-3.99l.25.2-2.03 4.46c-.52-.04-1.05-.09-1.56-.09h-8.4c-.87 0-1.71.05-2.59.09v-.27c2.12-.17 2.26-.84 2.26-3.32V42.6c0-2.49-.14-3.16-2.3-3.33V39c2.01.04 3.5.09 6.23.09 2.07 0 4.17-.05 6.29-.09-.04.69-.04 1.26-.04 1.84 0 .65.09 1.29.13 2.09l-.29.09c-.76-2.87-2.63-3.44-4.89-3.44-1.05 0-2.07.04-3.12.13v5.55c.58 0 1.14-.05 1.72-.05 2.03 0 3.28-.69 3.54-2.84h.27c0 1.07-.04 2.13-.04 3.18 0 1.06.04 2.13.04 3.19h-.27c-.51-2.51-1.45-2.95-3.83-2.95h-1.43zM65.15 45.65c0-3.61-2.19-6.85-5.89-6.85-3.71 0-5.89 3.24-5.89 6.85 0 3.62 2.18 6.86 5.89 6.86 3.7 0 5.89-3.24 5.89-6.86zm3.53 8.1c-1.16 1.42-2.1 2.22-4.02 2.22-2.57 0-5.96-2.31-9.24-2.31-1.21 0-2.14.27-3.17.91l.31.36c.63-.33 1.32-.6 2.03-.6 3.33 0 5.65 3.19 8.95 3.19 2.93 0 3.86-1.26 5.52-3.41zm-1.16-8.1c0 4.78-3.73 7.66-8.26 7.66-4.53 0-8.26-2.88-8.26-7.66 0-4.77 3.73-7.65 8.26-7.65 4.53 0 8.26 2.88 8.26 7.65zM71.92 41.24c0-1.64-.67-1.73-1.92-1.97V39c1.23.04 2.46.09 3.68.09.9 0 1.77-.05 2.66-.09v.27c-1.92.15-2.41.75-2.41 2.53v7.23c0 2.75 1.99 3.82 4.37 3.82 3.8 0 4.73-2.56 4.73-4v-6.21c0-2.38-.35-3.15-2.14-3.37V39c.92.04 1.83.09 2.75.09.76 0 1.52-.05 2.27-.09v.27c-1.27.17-2.07.4-2.07 2.88v6.63c0 3.53-2.72 5.17-6.07 5.17-3.02 0-5.85-1.62-5.85-4.83zM92.31 52.65c.49.11 1.65.28 2.47.28 3.6 0 5.45-1.15 7.59-3.99l.25.2-2.03 4.46c-.52-.04-1.05-.09-1.56-.09h-8.4c-.87 0-1.71.05-2.59.09v-.27c2.12-.17 2.26-.84 2.26-3.32V42.6c0-2.49-.14-3.16-2.3-3.33V39c2.01.04 3.5.09 6.23.09 2.07 0 4.17-.05 6.29-.09-.04.69-.04 1.26-.04 1.84 0 .65.08 1.29.13 2.09l-.29.09c-.76-2.87-2.63-3.44-4.89-3.44-1.05 0-2.07.04-3.12.13v5.55c.58 0 1.14-.05 1.72-.05 2.03 0 3.28-.69 3.54-2.84h.27c0 1.07-.04 2.13-.04 3.18 0 1.06.04 2.13.04 3.19h-.27c-.51-2.51-1.45-2.95-3.83-2.95h-1.43zM108.29 45.92a6.6 6.6 0 0 0 2.07.38c2.3 0 3.66-1 3.66-3.4 0-1.93-1.63-3.23-3.5-3.23-.74 0-1.48.04-2.15.24-.04 1.42-.08 2.84-.08 4.5zm11.31 7.72h-4.02a29.61 29.61 0 0 1-4.73-6.54c-.58 0-1.98-.22-2.56-.42v3.46c0 2.48.15 3.15 2.34 3.33v.26c-1.14-.04-2.26-.09-3.39-.09-1.1 0-2.17.05-3.24.09v-.26c2.12-.18 2.28-.85 2.28-3.33v-7.41c0-2.49-.16-3.15-2.28-3.33v-.27c.96.05 1.9.09 2.86.09.82 0 2.65-.22 3.79-.22 2.59 0 5.6 1.29 5.6 4.33 0 2.04-1.56 3.19-3.46 3.57 1.25 2.11 3.95 6.17 6.81 6.48zM130 42.57c-.78-1.91-2.48-3.86-4.75-3.86-1.7 0-2.91.53-2.91 2.13 0 3.82 8.69 2.91 8.69 8.3 0 2.88-2.28 4.17-5 4.17-1.48 0-3.37-.64-4.07-.64-.33 0-.62.13-.93.24-.27-1.69-.65-3.31-1.03-4.95l.29-.15c1.09 2.04 3.01 4.79 5.69 4.79 1.74 0 3.31-.71 3.31-2.64 0-4.24-8.69-3.53-8.69-8.14 0-2.33 1.94-3.82 4.15-3.82 1.1 0 1.95.18 2.77.36.85.17 1.65.37 2.61.37 0 1.29.03 2.58.18 3.84zM39.27 66.04c-.25-1.33-1.4-2.56-2.89-2.56-1.98 0-2.61 1.73-2.61 3.12 0 1.8 1.1 3.12 3.24 3.12 1.55 0 2.48-.89 3.07-1.67l.29.27a4.73 4.73 0 0 1-4.14 2.19c-2.44 0-4.23-1.47-4.23-3.76C32 64.5 33.84 63 36.46 63c.46 0 1.13.1 1.71.2.58.09 1.07.19 1.16.19l.13-.01-.02.84c0 .61.05 1.22.13 1.82zM48.06 66.83l-1-2.55h-.03l-1.06 2.55zM43 70.07c.92-.09 1.13-.5 1.46-1.18l2.4-4.98-.22-.52c.52-.09 1.04-.2 1.51-.39l2.66 6.41c.19.47.76.66 1.26.66v.26a55.12 55.12 0 0 0-4.27 0v-.26c.85-.05 1.25-.23 1.25-.61 0-.27-.28-.84-.4-1.14l-.42-1.08h-2.44l-.62 1.54c-.07.19-.2.37-.2.65 0 .36.64.58 1.08.64v.26a27.77 27.77 0 0 0-3.05 0zM56.95 66.48c.26.1.63.19.94.19 1.11 0 1.67-.69 1.67-1.64 0-.92-.42-1.64-1.56-1.64-.38 0-.72.07-1.05.18zm-1.64-1.91c0-.98-.21-1.18-1.31-1.27v-.26c.47.04 1.1.07 1.86.07s1.55-.11 2.36-.11c1.54 0 2.99.67 2.99 2.15 0 1.3-1.33 1.91-2.65 1.91-.54 0-1.1-.07-1.61-.24v1.9c0 .98.1 1.2 1.36 1.29v.21c-.69-.02-1.39-.04-2.09-.04-.75 0-1.48.02-2.22.04v-.21c1.21-.09 1.31-.31 1.31-1.29zM65.05 63c.75.03 1.48.07 2.23.07.71 0 1.41-.04 2.12-.07v.26c-1.13.03-1.4.34-1.4 1.2v4.61c0 .57.37.81 1.36.85l-.02.26a50.44 50.44 0 0 0-4.34 0v-.26c.99-.04 1.36-.28 1.36-.85v-4.61c0-.86-.29-1.17-1.31-1.2zM79.28 65.27c-.37-1.61-1.2-1.79-2.66-1.79v5.2c0 .98.1 1.2 1.35 1.28v.22c-.69-.02-1.39-.04-2.08-.04-.75 0-1.49.02-2.26.04v-.22c1.25-.08 1.35-.3 1.35-1.28v-5.2c-1.46 0-2.29.18-2.66 1.79H72c.06-.54.12-1.07.12-2.27 1.23.03 2.42.07 3.62.07 1.22 0 2.45-.04 3.69-.07 0 1.2.06 1.73.12 2.27zM86.06 66.83l-1-2.55h-.03l-1.06 2.55zM81 70.07c.92-.09 1.13-.5 1.46-1.18l2.4-4.98-.22-.52a7.6 7.6 0 0 0 1.51-.39l2.66 6.41c.19.47.76.66 1.26.66v.26a55.12 55.12 0 0 0-4.27 0v-.26c.85-.05 1.25-.23 1.25-.61 0-.27-.28-.84-.4-1.14l-.42-1.08h-2.44l-.62 1.54c-.07.19-.2.37-.2.65 0 .36.64.58 1.08.64v.26a27.77 27.77 0 0 0-3.05 0zM94.3 64.32c0-.81-.5-.96-1.28-1.06V63a41.46 41.46 0 0 0 4.49 0v.26c-.75.1-1.57.25-1.57 1.06v5.37c.23.06.68.08 1.14.08 1.82 0 2.7-.64 3.52-2.05l.31.12c-.42.75-.75 1.54-.97 2.34a192.71 192.71 0 0 0-6.94 0v-.26c.66 0 1.3-.08 1.3-.77z"/><path fill="#fff" d="M12.86 43.41c-.81-2.66-2.5-4.61-5.36-4.61-3.66 0-5.09 3.06-5.09 6.61 0 3.55 1.92 6.66 5.62 6.66 2.73 0 4.71-1.51 6.25-3.89l.56.45c-2.01 2.99-3.95 4.68-7.47 4.68-4 0-7.37-3.15-7.37-7.66C0 41.15 3.37 38 7.37 38c2.2 0 3.79.62 5.4.67 0 1.22.24 3.48.4 4.74zM28.61 42.59c0-2.48-.16-3.15-2.32-3.32V39c1.2.04 2.43.09 3.64.09.98 0 1.96-.05 2.92-.09v.27c-2.07.17-2.23.84-2.23 3.32V50c0 2.49.16 3.16 2.34 3.33v.27a69.3 69.3 0 0 0-6.63 0v-.27c2.12-.17 2.28-.84 2.28-3.33v-3.99h-8.28V50c0 2.49.16 3.16 2.34 3.33v.27a69.69 69.69 0 0 0-6.63 0v-.27c2.12-.17 2.28-.84 2.28-3.33v-7.41c0-2.48-.16-3.15-2.32-3.32V39c1.21.04 2.43.09 3.64.09.98 0 1.96-.05 2.92-.09v.27c-2.07.17-2.23.84-2.23 3.32v2.71h8.28zM39.31 52.65c.49.11 1.65.28 2.47.28 3.6 0 5.45-1.15 7.59-3.99l.25.2-2.03 4.46c-.52-.04-1.05-.09-1.56-.09h-8.4c-.87 0-1.71.05-2.59.09v-.27c2.12-.17 2.26-.84 2.26-3.32V42.6c0-2.49-.14-3.16-2.3-3.33V39c2.01.04 3.5.09 6.23.09 2.07 0 4.17-.05 6.29-.09-.04.69-.04 1.26-.04 1.84 0 .65.09 1.29.13 2.09l-.29.09c-.76-2.87-2.63-3.44-4.89-3.44-1.05 0-2.07.04-3.12.13v5.55c.58 0 1.14-.05 1.72-.05 2.03 0 3.28-.69 3.54-2.84h.27c0 1.07-.04 2.13-.04 3.18 0 1.06.04 2.13.04 3.19h-.27c-.51-2.51-1.45-2.95-3.83-2.95h-1.43zM65.15 45.65c0-3.61-2.19-6.85-5.89-6.85-3.71 0-5.89 3.24-5.89 6.85 0 3.62 2.18 6.86 5.89 6.86 3.7 0 5.89-3.24 5.89-6.86zm3.53 8.1c-1.16 1.42-2.1 2.22-4.02 2.22-2.57 0-5.96-2.31-9.24-2.31-1.21 0-2.14.27-3.17.91l.31.36c.63-.33 1.32-.6 2.03-.6 3.33 0 5.65 3.19 8.95 3.19 2.93 0 3.86-1.26 5.52-3.41zm-1.16-8.1c0 4.78-3.73 7.66-8.26 7.66-4.53 0-8.26-2.88-8.26-7.66 0-4.77 3.73-7.65 8.26-7.65 4.53 0 8.26 2.88 8.26 7.65zM71.92 41.24c0-1.64-.67-1.73-1.92-1.97V39c1.23.04 2.46.09 3.68.09.9 0 1.77-.05 2.66-.09v.27c-1.92.15-2.41.75-2.41 2.53v7.23c0 2.75 1.99 3.82 4.37 3.82 3.8 0 4.73-2.56 4.73-4v-6.21c0-2.38-.35-3.15-2.14-3.37V39c.92.04 1.83.09 2.75.09.76 0 1.52-.05 2.27-.09v.27c-1.27.17-2.07.4-2.07 2.88v6.63c0 3.53-2.72 5.17-6.07 5.17-3.02 0-5.85-1.62-5.85-4.83zM92.31 52.65c.49.11 1.65.28 2.47.28 3.6 0 5.45-1.15 7.59-3.99l.25.2-2.03 4.46c-.52-.04-1.05-.09-1.56-.09h-8.4c-.87 0-1.71.05-2.59.09v-.27c2.12-.17 2.26-.84 2.26-3.32V42.6c0-2.49-.14-3.16-2.3-3.33V39c2.01.04 3.5.09 6.23.09 2.07 0 4.17-.05 6.29-.09-.04.69-.04 1.26-.04 1.84 0 .65.08 1.29.13 2.09l-.29.09c-.76-2.87-2.63-3.44-4.89-3.44-1.05 0-2.07.04-3.12.13v5.55c.58 0 1.14-.05 1.72-.05 2.03 0 3.28-.69 3.54-2.84h.27c0 1.07-.04 2.13-.04 3.18 0 1.06.04 2.13.04 3.19h-.27c-.51-2.51-1.45-2.95-3.83-2.95h-1.43zM108.29 45.92a6.6 6.6 0 0 0 2.07.38c2.3 0 3.66-1 3.66-3.4 0-1.93-1.63-3.23-3.5-3.23-.74 0-1.48.04-2.15.24-.04 1.42-.08 2.84-.08 4.5zm11.31 7.72h-4.02a29.61 29.61 0 0 1-4.73-6.54c-.58 0-1.98-.22-2.56-.42v3.46c0 2.48.15 3.15 2.34 3.33v.26c-1.14-.04-2.26-.09-3.39-.09-1.1 0-2.17.05-3.24.09v-.26c2.12-.18 2.28-.85 2.28-3.33v-7.41c0-2.49-.16-3.15-2.28-3.33v-.27c.96.05 1.9.09 2.86.09.82 0 2.65-.22 3.79-.22 2.59 0 5.6 1.29 5.6 4.33 0 2.04-1.56 3.19-3.46 3.57 1.25 2.11 3.95 6.17 6.81 6.48zM130 42.57c-.78-1.91-2.48-3.86-4.75-3.86-1.7 0-2.91.53-2.91 2.13 0 3.82 8.69 2.91 8.69 8.3 0 2.88-2.28 4.17-5 4.17-1.48 0-3.37-.64-4.07-.64-.33 0-.62.13-.93.24-.27-1.69-.65-3.31-1.03-4.95l.29-.15c1.09 2.04 3.01 4.79 5.69 4.79 1.74 0 3.31-.71 3.31-2.64 0-4.24-8.69-3.53-8.69-8.14 0-2.33 1.94-3.82 4.15-3.82 1.1 0 1.95.18 2.77.36.85.17 1.65.37 2.61.37 0 1.29.03 2.58.18 3.84zM39.27 66.04c-.25-1.33-1.4-2.56-2.89-2.56-1.98 0-2.61 1.73-2.61 3.12 0 1.8 1.1 3.12 3.24 3.12 1.55 0 2.48-.89 3.07-1.67l.29.27a4.73 4.73 0 0 1-4.14 2.19c-2.44 0-4.23-1.47-4.23-3.76C32 64.5 33.84 63 36.46 63c.46 0 1.13.1 1.71.2.58.09 1.07.19 1.16.19l.13-.01-.02.84c0 .61.05 1.22.13 1.82zM48.06 66.83l-1-2.55h-.03l-1.06 2.55zM43 70.07c.92-.09 1.13-.5 1.46-1.18l2.4-4.98-.22-.52c.52-.09 1.04-.2 1.51-.39l2.66 6.41c.19.47.76.66 1.26.66v.26a55.12 55.12 0 0 0-4.27 0v-.26c.85-.05 1.25-.23 1.25-.61 0-.27-.28-.84-.4-1.14l-.42-1.08h-2.44l-.62 1.54c-.07.19-.2.37-.2.65 0 .36.64.58 1.08.64v.26a27.77 27.77 0 0 0-3.05 0zM56.95 66.48c.26.1.63.19.94.19 1.11 0 1.67-.69 1.67-1.64 0-.92-.42-1.64-1.56-1.64-.38 0-.72.07-1.05.18zm-1.64-1.91c0-.98-.21-1.18-1.31-1.27v-.26c.47.04 1.1.07 1.86.07s1.55-.11 2.36-.11c1.54 0 2.99.67 2.99 2.15 0 1.3-1.33 1.91-2.65 1.91-.54 0-1.1-.07-1.61-.24v1.9c0 .98.1 1.2 1.36 1.29v.21c-.69-.02-1.39-.04-2.09-.04-.75 0-1.48.02-2.22.04v-.21c1.21-.09 1.31-.31 1.31-1.29zM65.05 63c.75.03 1.48.07 2.23.07.71 0 1.41-.04 2.12-.07v.26c-1.13.03-1.4.34-1.4 1.2v4.61c0 .57.37.81 1.36.85l-.02.26a50.44 50.44 0 0 0-4.34 0v-.26c.99-.04 1.36-.28 1.36-.85v-4.61c0-.86-.29-1.17-1.31-1.2zM79.28 65.27c-.37-1.61-1.2-1.79-2.66-1.79v5.2c0 .98.1 1.2 1.35 1.28v.22c-.69-.02-1.39-.04-2.08-.04-.75 0-1.49.02-2.26.04v-.22c1.25-.08 1.35-.3 1.35-1.28v-5.2c-1.46 0-2.29.18-2.66 1.79H72c.06-.54.12-1.07.12-2.27 1.23.03 2.42.07 3.62.07 1.22 0 2.45-.04 3.69-.07 0 1.2.06 1.73.12 2.27zM86.06 66.83l-1-2.55h-.03l-1.06 2.55zM81 70.07c.92-.09 1.13-.5 1.46-1.18l2.4-4.98-.22-.52a7.6 7.6 0 0 0 1.51-.39l2.66 6.41c.19.47.76.66 1.26.66v.26a55.12 55.12 0 0 0-4.27 0v-.26c.85-.05 1.25-.23 1.25-.61 0-.27-.28-.84-.4-1.14l-.42-1.08h-2.44l-.62 1.54c-.07.19-.2.37-.2.65 0 .36.64.58 1.08.64v.26a27.77 27.77 0 0 0-3.05 0zM94.3 64.32c0-.81-.5-.96-1.28-1.06V63a41.46 41.46 0 0 0 4.49 0v.26c-.75.1-1.57.25-1.57 1.06v5.37c.23.06.68.08 1.14.08 1.82 0 2.7-.64 3.52-2.05l.31.12c-.42.75-.75 1.54-.97 2.34a192.71 192.71 0 0 0-6.94 0v-.26c.66 0 1.3-.08 1.3-.77z"/><path fill="none" stroke="#fff" stroke-miterlimit="50" stroke-width="1.43" d="M0 59h49.74M72 59h59.29"/></svg>